<svg xmlns="http://www.w3.org/2000/svg"><symbol id="icon-arrow-top" viewBox="-73.9 -55.3 135.9 85.4">
  <g>
    <polygon style="fill:red;" points="-73.9,29.1 -6,-9.2 61.9,30.1 61.9,14.2 -6,-25.1 -73.9,14.2 "/>
  </g>
  <g>
    <polygon style="fill:#orange;" points="-73.9,-1 -6,-39.3 61.9,0 61.9,-16 -6,-55.3 -73.9,-16 "/>
  </g>
</symbol><symbol id="icon-checkbox" viewBox="0 0 80 80">
<g>
	<path style="fill:#C2E8FF;" d="M8,75.5c-1.93,0-3.5-1.57-3.5-3.5V8c0-1.93,1.57-3.5,3.5-3.5h64c1.93,0,3.5,1.57,3.5,3.5v64   c0,1.93-1.57,3.5-3.5,3.5H8z"/>
	<g>
		<path style="fill:#7496C4;" d="M72,5c1.654,0,3,1.346,3,3v64c0,1.654-1.346,3-3,3H8c-1.654,0-3-1.346-3-3V8c0-1.654,1.346-3,3-3    H72 M72,4H8C5.791,4,4,5.791,4,8v64c0,2.209,1.791,4,4,4h64c2.209,0,4-1.791,4-4V8C76,5.791,74.209,4,72,4L72,4z"/>
	</g>
</g>
<polyline style="fill:none;stroke:#7496C4;stroke-width:6;stroke-miterlimit:10;" points="22,40.107 33.929,52.036 60.769,25.195   "/>
</symbol></svg>